<svg xmlns="http://www.w3.org/2000/svg" viewBox="0 0 915.89 916.79"><defs><style>.cls-1{stroke:#000;stroke-miterlimit:10;}.cls-2{fill:#fff;}</style></defs><g id="Capa_1_copia_3" data-name="Capa 1 copia 3"><circle class="cls-1" cx="457.94" cy="458.4" r="445.76"/></g><g id="Capa_1_copia" data-name="Capa 1 copia"><path class="cls-2" d="M957.94,500.47C958.64,749.81,756.2,958.41,500,958.4c-254.73,0-458.85-207.28-457.94-460.19.9-251.49,205.24-457.1,459-456.6C755,42.1,959.09,249.39,957.94,500.47ZM71.36,503.11c0,237.76,192.94,428.27,427.54,428.47,236.16.2,427.39-191.29,428.46-426.12,1.08-237.8-191-430.87-428.23-430.59C260.76,75.15,71.41,268.33,71.36,503.11Z" transform="translate(-42.06 -41.6)"/><path class="cls-2" d="M465.18,481.68c-1.19,39.83-3.14,74-5.18,108.13-1.38,23.23-3,46.45-4.63,69.67-.91,13.1-1.71,26.21-3.08,39.25-1,9.85-9.31,22.28-23.6,18.64a10.44,10.44,0,0,1-5.54-3.32q-46-51.74-92.14-103.4-45.93-51.55-91.8-103.16c-1.55-1.74-3.07-3.51-4.51-5.33-2.25-2.86-2.53-5.71-.4-8.93,13.83-20.92,33.09-34.13,57.19-40.48a23.76,23.76,0,0,0,5.7-2.41c12.41-7.09,24.77-14.7,38.95-17.34,10.64-2,20.08-7.57,30.82-8.86,1.92-.23,3.86-.87,5.75-.75,8.76.56,15.68-4.83,23.55-7.12,8.95-2.6,17.85-3.79,27.21-2.66,5.74.69,11.66.2,17.48-.15,6.92-.43,13.34,1.39,19.67,3.72,2.92,1.08,3,4.11,3.37,6.59a145.65,145.65,0,0,1,1.55,21.38C465.75,459.21,465.6,473.26,465.18,481.68ZM332.3,460.62a18.48,18.48,0,0,0-7.2,11.62c-1.31,7.48,1.33,14,5.62,20,.9,1.26,1.63,2.75,3.64,1.31s.26-2.48-.27-3.53c-4.35-8.49-5.57-17.14-1.63-26.14a11.21,11.21,0,0,0,.44-2.63c.59-.35,1.67-.76,1.09-1.44S332.74,460,332.3,460.62Zm-7.78,116.51c2.24-9.5,8-15.64,14.79-20.83,17.77-13.57,36.55-25.69,55.11-38.12,11.44-7.67,23.2-14.87,34.61-22.57,7.66-5.16,13.33-12.3,18.3-20a6.43,6.43,0,0,0-.57-8.28c-2.37-2.64-4.24.38-5.92,1.54-5.26,3.59-10.35,7.44-15.46,11.24-19.22,14.31-38.9,27.8-61.37,36.75-15.36,6.11-30.05,13.36-38.44,28.87a2.68,2.68,0,0,1-3.73,1.12c-1.52-.7-2.44-2-1.75-3.81a20.86,20.86,0,0,1,1.78-3.45c6.06-9.85,14.95-16.48,24.94-21.85,9.39-5.05,19.39-8.81,29-13.4,17.73-8.44,33.22-20.35,49.05-31.74,5.8-4.17,11.12-9.08,17.72-12,7.61-3.4,14,1.11,13.8,9.47a13.78,13.78,0,0,1-1.19,5.29,47.89,47.89,0,0,1-6.93,10.8C439.4,497,428,504.72,416.2,511.9c-24.21,14.75-47.42,31-70.49,47.41-6.28,4.48-11.79,9.89-14.57,17.39-1.87,5.07.49,8.15,5.93,7.89,4.53-.21,8.19-2.7,11.46-5.36a391.15,391.15,0,0,1,31.88-23.07c13.36-8.78,26.36-18.11,40.35-25.89,7.24-4,14.81-7.06,23.32-6.63a11.91,11.91,0,0,1,11.54,12.21c.05,7.35-4.32,12.2-9.62,16.08-17,12.45-32.71,26.49-49.53,39.17a173.69,173.69,0,0,0-24.34,21.82c-.94,1-2.25,2.3-1.51,3.72s2.57.62,3.93.7a6.45,6.45,0,0,0,1.52-.32c7.25-1.35,13-5.68,18.88-9.68,12.72-8.61,26-16.2,40.55-21.28,4-1.39,7.33-.78,10.27,2.24s3.36,6.57,2.08,10.46a31.86,31.86,0,0,1-8,12.31,335.58,335.58,0,0,1-31.08,28.4c-2.66,2.09-5.33,4.25-6.89,7.34s-2.83,6.68-.08,9.79c2.53,2.86,5.61.93,8.37.1a32.79,32.79,0,0,0,5.67-2.57c4.14-2.18,8.21-4.51,12.36-6.66a20.53,20.53,0,0,1,9.28-2.69,8.53,8.53,0,0,1,8,4.73c1.56,2.86.84,5.78-.86,8.48-2.2,3.49-5.68,5.23-9.23,6.89-3.3,1.54-6.65,2.94-9.28,5.62-2,2.08-3.55,4.49-2.46,7.31s4.05,2.18,6.48,2.11c4.56-.15,7.86,1.61,8.93,4.77,1.32,3.88-.63,9.47-4.07,11.75-1.54,1-3.08,1.53-4.61.1s-1.4-2.7-.37-4.47c2.44-4.15,1.75-5.25-3.07-5.73-4.4-.44-8.19-2.22-10-6.4-1.66-3.91-.27-7.6,2.13-11,3-4.18,7.3-6.54,11.74-8.77,2.66-1.35,5.47-2.46,7.75-4.46,1-.9,1.75-2.11,1.08-3.45s-2-1.1-3.13-.93c-3.17.45-5.85,2-8.58,3.58-6.3,3.59-12.38,7.7-19.74,9-9.56,1.67-16.17-5.7-13.75-15.06,1.27-4.93,4.16-8.52,7.81-11.8,8.71-7.82,17.42-15.63,25.95-23.65,4.43-4.16,9.34-8,12.4-13.39,1.28-2.28,2.47-4.93.52-7.28s-4.36-.58-6.42.2c-11.13,4.19-21.34,10.11-31.11,16.86-7.27,5-14.63,9.89-23.22,12.54a22.7,22.7,0,0,1-12.65.31c-5.14-1.33-6.5-4.67-4.07-9.47,2.94-5.84,7.53-10.37,12.65-14.11,22.35-16.34,42.47-35.48,65.16-51.37a20.63,20.63,0,0,0,7.13-7.62c2.65-5.46-.42-10.44-6.43-10.4-5.78,0-11,2.28-15.82,5a557.41,557.41,0,0,0-73.21,48.72c-5,3.94-10.17,7.54-17.56,7.57,4.74,6,9,11.46,13.43,16.89,25.53,31.7,50.42,63.92,77.13,94.66,1.06,1.22,1.91,2.25.55,3.62-1.71,1.73-2.29-.52-2.87-1.17-5.74-6.55-11.47-13.12-17-19.87Q364.67,633.37,323.32,581q-14.93-19-30.1-37.83a8.44,8.44,0,0,1-2-6.09c.25-5.51,3-9.91,6.34-13.94,2.93-3.53,6.23-6.76,9.87-10.66-18.71,1.89-36.75,3.5-55.5,2.33a2.83,2.83,0,0,1,2.7-1.48c9.48-.51,19-.89,28.44-1.57,8.68-.63,17.34-1.52,26-2.45,2-.21,4.33-.31,5.59-3.05-11.86,1.39-23.33,2.8-34.89,3.46s-23.26.53-34.88-1.72c.2,1.65,1.31,2.28,2.06,3.12q47.46,53.32,95,106.62,41.52,46.62,83,93.27a8.9,8.9,0,0,0,5.9,3.33c9.49,1.1,17.49-5.84,18.29-16.5,2.18-29.31,4.39-58.61,6.22-87.94,2.25-35.83,4.49-71.67,5.73-107.56.79-22.89,1.74-45.78.6-68.68-.14-2.88-.57-5.73-.92-9.1-1.84,2.2-2.85,4.14-4.92,5.25q-51.51,27.66-102.44,56.35c-16.3,9.24-32.25,19.06-46.22,31.69-5,4.54-9.68,9.46-12,16.06-1.05,2.92-.85,5.42,1.3,7.94,3.63,4.24,7,8.74,10.44,13.13C312.62,562.18,318.36,569.38,324.52,577.13ZM457.76,421.92c-.1-2.25-1.91-2.91-3.38-3.38a41.5,41.5,0,0,0-11.46-1.87c-6.37-.19-12.89,1.28-19,.47-12.64-1.68-24.32.64-35.52,5.88a36.88,36.88,0,0,1-15.28,3.75,50.4,50.4,0,0,0-8.82,1.35c-9.26,1.82-17.64,6.32-27,8.1-14,2.65-26.33,10.07-38.57,17.2a21.92,21.92,0,0,1-5.69,2.42c-23.08,5.89-41.63,18.41-55.13,38.16-2.39,3.5-2.1,5.34,1.39,7.73s7.85,3.31,12.11,4c1.62.25,2-.48,1.85-2-.43-5.26,2.24-9.2,5.64-12.78a54.27,54.27,0,0,1,17.62-12c6.39-2.83,11.72-6.92,17-11.38,11-9.27,22.82-18.32,37.45-19.55,10.6-.89,19.1-5.27,28.12-9.58,9.21-4.4,19-7.05,29.3-6.42a25.72,25.72,0,0,0,15.18-3.55c7.72-4.49,15.83-7.8,25.12-5.65a4.75,4.75,0,0,0,2.31,0c6.6-1.93,12.29.11,17.44,4.11,1.66,1.29,2.95,1.62,4.84.48A9,9,0,0,0,457.76,421.92Zm-85.1,49.13c9.44-4.76,8.91-2.3,3.41-11.31a21.45,21.45,0,0,0-2.38-3.08c-4.8-5.33-10.61-9-18-8.51-14.11,1-30.3,19.34-21.4,38.23,2.58,5.46,2.53,5.49,7.83,2.38.89-.53,1.8-1,2.69-1.57,1.52-.91,3.72-1.64.63-3.48-1.61-1-.91-2.17,0-3.24a10.2,10.2,0,0,1,4-2.34c6.52-2.69,6.67-3.54,1.52-8.56-.19-.18-.39-.35-.57-.54-1.77-1.91-4.34-4.46-2.3-6.57,1.78-1.82,4.78.06,6.84,1.85,6,5.21,6.9,5.27,13.83,1.43,1.14-.63,2.41-1.31,3.6-.31a3.29,3.29,0,0,1,.86,3.58C373.11,469.7,372.09,470.13,372.66,471.05Zm-79,13.66c-.1,5.84,2,10,4.4,14,2.48,4.27,5.44,6.22,10.77,4.9,6.22-1.54,6.33-1.09,6.66-7.61.33-6.75.33-6.75-5.94-8.78a29.38,29.38,0,0,1-3.29-1.2c-1.52-.7-3.4-1.41-3.05-3.49s2.25-2.37,3.93-2.63c3.41-.53,6.73.22,10,1,2.05.5,2.86-.28,3.9-2,2.44-4.11,1.84-9.21,4.52-13.13,1.55-2.27.11-2.57-1.54-2.95a24,24,0,0,0-10-.11C304.21,464.58,293.72,476.31,293.71,484.71Zm101.3-47c-8.54,0-19.58,7.25-22.42,13.44-.76,1.65.36,2.16,1.07,2.86a34.43,34.43,0,0,1,6.82,9.39c1.17,2.37,2.07,2.68,4.32,1.29,4.14-2.56,4.79-4.93,1.87-8.77-.39-.52-.83-1-1.18-1.54-1.2-1.85-3-4.25-1.34-5.94,1.9-1.89,4.43-.16,6.17,1.42s3.28,3.68,5,5.4c1.13,1.11,2.21,2.49,4.29,1.25,3.55-2.13,7.24-4.05,10.9-6,1.18-.62,1.55-1.16.61-2.33C406.55,442.46,401.12,438.12,395,437.74ZM288.67,479.92c-13.2,1.5-21.3,11.83-20,24.67.18,1.78.89,2.12,2.44,2,3.76-.17,7.53-.12,11.28-.39,1.75-.13,4.4.72,4.94-1.57s-1.88-3.41-3.61-4.55a9.06,9.06,0,0,1-1-.61c-1.23-1.11-4.16-.86-3.62-3.27.48-2.11,3-2.2,4.83-2.7a4.79,4.79,0,0,1,1.53-.24c1.77.13,2.14-.69,2-2.33A24.76,24.76,0,0,1,288.67,479.92Zm61-16.1c-.1,1.78,1,2.74,1.93,3.75,7.07,7.43,6.93,8.14-2.3,12.55-.95.45-2.72.78-2.15,2.24a2.53,2.53,0,0,0,3.6,1.33c6.81-4.45,15.37-6.44,20-14,.44-.72,1.42-1.51.73-2.38s-1.66,0-2.37.42c-6.26,3.8-9,3.57-14.43-1.39C353.23,465,351.82,463.83,349.64,463.82Zm-26.53,15c-1.46,3.95-3.59,4.64-6.77,3.78-2.72-.74-5.54-1.53-8.43-1-.93.18-2.33,0-2.45,1.35-.1,1,1.08,1.36,1.89,1.65a44.19,44.19,0,0,0,6.65,2.1c2.59.48,3.41,1.89,3.3,4.31-.14,3-.17,6-.2,8.94,0,.7-.35,1.73.73,1.87.88.11,1.26-.78,1.5-1.51.41-1.22.65-2.51,1.09-3.72.86-2.34,1.87-4.77,4.47-5.53s1.81-1.82,1-3.36A27.68,27.68,0,0,1,323.11,478.81Zm112.74-42.2c-6.87-4-13.59-5.22-20.67-1.06-3,1.75-4.13,3.29-.65,5.67.82.56,1.21,1.71,2,2.38s.89,2.7,2.78,2.12c1.5-.45,1.7-1.6,2-3,.52-2.69,2.45-5.24,5.05-4C430.46,440.84,432.73,438.13,435.85,436.61ZM293.27,477.54c-2.28,1.13-2.74,2.8-3.26,4.34-2.42,7.07-.47,13.54,2.9,19.78,2.15,4,2.32,4,7,2.42C293.35,496.48,290.07,488,293.27,477.54ZM399,436.47a33.87,33.87,0,0,1,13.5,10.59c1,1.24,1.8,1.76,3.12.69,1.49-1.21.09-2.1-.48-2.92A18.75,18.75,0,0,0,399,436.47Zm-78,65.84c3-1.91,5.61-3.55,8.21-5.18,1.31-.82,1.71-1.62.61-3.09-1.73-2.31-4.32-2.36-6.27.27C322,496.51,321.48,499.14,321,502.31Zm75.12-43.88c-3.57-2.94-5.72-7.13-10.63-9.31.6,5.2,6,7.37,4,12.9ZM269.93,488.68c-4.25,4.69-5.66,10.44-6.39,16.46-.16,1.36.68,1.47,1.65,1.49s1.85-.11,1.78-1.42A36.61,36.61,0,0,1,269.93,488.68Zm11.73,7.75c.83,1.25,2.27,1.6,3.41,2.34,1.86,1.22,3.8,2.41,4,4.9.22,2.74,1.73,2,3.5,1.6-1.07-2.27-2.07-4.21-2.91-6.22C287.67,494.23,286.92,494,281.66,496.43Z" transform="translate(-42.06 -41.6)"/><path class="cls-2" d="M598.67,683.57c10.91,1.69,17.59,8.3,20,19.7a57,57,0,0,1,.85,6.12c.58,5.65-.48,7.3-6.11,8.7-9,2.24-18.32,1.82-27.53,1.78-11.18,0-22.48.17-33.44-1.88-15.37-2.87-30.17.41-45.16,2.32-1.11.14-2.07.37-2.06-1.3,0-9,.75-17.84,6.54-25.18,6.07-7.68,14.46-8.59,23.36-6.56,2.56.59,3.09.18,3.12-2.37,0-3.13-.21-5.45-3.46-7.31-4.44-2.55-4.24-6.67.28-9.56,2.68-1.7,2.47-3,.68-5-2.32-2.64-4.22-5.72-6.82-8-5.12-4.54-6.85-10.41-7.93-16.8-3.75-22.21-5.8-44.6-7.78-67q-3.89-44.11-6.43-88.33c-.11-1.89-.81-2.64-2.5-3.3-7.4-2.91-8.63-7.22-3.73-13.46,1.42-1.81,1.49-2.66-.22-4.36-4.21-4.18-4.34-6.75-.87-11.06a2.19,2.19,0,0,0,.23-2.74,11.45,11.45,0,0,1,.39-9.84c3.29-6.62,6.45-13.42,14.37-16,2.43-.78,5-1.41,7.26-.58,3.07,1.15,3.47-.7,4.35-2.59,3.95-8.47,9.56-15.19,19.16-17.43A27.58,27.58,0,0,1,561.67,403a5.87,5.87,0,0,0,5.45-.53c7.17-3.87,14.55-6.78,23-4.63a15.63,15.63,0,0,1,8.41,5.3c1.8,2.18,2.8,1.77,4.38-.21q27.51-34.42,55.1-68.78a17.44,17.44,0,0,1,12.7-6.6c3.23-.3,6.16.55,7.49,3.71,1.41,3.34,2.51,6.74-.24,10.25-9.72,12.38-19.28,24.88-28.9,37.33-8.74,11.31-17.44,22.64-26.23,33.9-1.22,1.57-1.82,2.27.34,3.75,6,4.13,7.33,8.69,4.43,15.51-1.06,2.51-.71,3.82,1.25,5.58,3.16,2.85,6.64,5.89,3.61,10.94-.48.8.32,1.46.74,2.05,2.69,3.86,2.76,8.08,1.33,12.28-.73,2.13-.26,3.14,1.44,4.45,4.46,3.43,5,8.24.31,10.9-5.16,2.95-5.49,7.26-5.77,11.93-.86,14.49-3.19,28.8-5.76,43-7,38.52-16,76.56-26.3,114.33-1.49,5.49-3,11-4.49,16.47-.4,1.48-.88,2.8.89,4C602.2,673.19,602.55,674.82,598.67,683.57Zm-55.9-169.36c.4,8.9.64,17.29,1.18,25.67q1.69,26.46,3.69,52.91c.83,10.89,2.19,21.73,2.8,32.62.36,6.32,2.61,12.84-1.43,19-3,4.62-6.87,5.19-10.35.92a27.9,27.9,0,0,1-5.84-13.44C531.45,623.43,530,615,529,606.46c-4.36-35.87-7.86-71.84-11.32-107.81-.68-7.11.14-14.56-3.52-21.26-.61-1.12-.27-2.81-.21-4.23.12-2.6,1.86-4.68,2.65-7.07-2.16-.35-4.1-.57-6-1-3.76-.88-8,1.72-9.1,6s2.52,5,5.26,5.61,3.18,2,3.28,4.32q.47,10.13,1.22,20.26c1.68,22.57,3.28,45.15,5.16,67.7,1.91,23.06,4.12,46.1,7.93,69,1,5.77,2.76,10.9,7.31,15A49.66,49.66,0,0,1,540,663.27c2.36,3.73,2.15,4.42-1.62,6.62-1.3.75-3.2,1.31-3.08,3.15s2,2.23,3.31,3,2.92,1,2.85,3.14c-.14,4.38,0,8.77,0,13.4-2.82-.82-5.26-1.66-7.77-2.23-9.14-2.12-16.65.84-20.9,8.15-2.88,5-3.55,10.53-4.11,16.1-.25,2.42,1.16,1.81,2.71,1.66,13.49-1.34,26.72-3.59,40.6-1.65,18.09,2.53,36.54,3.29,54.85,1.17,11-1.28,10.74-1.4,8.71-11.64-2.45-12.3-10.28-18.07-22.13-16.85-.89.09-1.77.59-2.12-.8a2.09,2.09,0,0,1,1.17-2.78c7.23-4.47,7.21-9.51-.24-13.33-2.91-1.5-2.62-3.14-1.93-5.58q7.69-27.22,14.45-54.72c6-24.4,11.61-48.9,16.1-73.63,2.93-16.14,5.69-32.34,6.55-48.77.24-4.58.21-9.41,5.95-11.12.34-.1.61-.47.91-.73,2.53-2.13,2.23-4.15-.31-6a12.73,12.73,0,0,0-2.69-1.56c-1.93-.76-2.42-1.47-1.11-3.54,2.51-4,3-8.21.23-12.44-1-1.51-2.29-1.34-3.75-1.24-1.8.12-1.45,1.39-1.66,2.5-.87,4.67-.91,9.59-3.88,13.65-1,1.38-.1,2.05.74,2.91a10.1,10.1,0,0,1,3,9.26c-3.38,16.68-7,33.32-10.42,50q-9.61,46.26-19.16,92.53c-1.53,7.37-3.15,14.7-7.17,21.23-1.54,2.5-3.46,4.67-6.46,5.26-2,.4-3.87.34-3.66-2.8.5-7.66.67-15.33,1.12-23C580,606.89,581,591.2,582,575.51c.6-9.59,1.18-19.19,1.84-28.78.91-13.21,1.92-26.41,2.78-39.62.08-1.2,1.14-3.3-1.85-3.12-2.32.13-3.68.23-3.74,3.29-.25,12-1,23.92-1.29,35.88-.8,31.21-2.86,62.36-4.05,93.55-.17,4.6-2.3,8.19-5.38,11.3a6,6,0,0,1-6.81,1.45c-3.56-1.37-7.42-7.25-7.34-11.12.1-4.81.19-9.63.13-14.44-.25-22.63-2.13-45.19-3.29-67.78-.61-11.82-1.55-23.61-2.31-35.42a2.51,2.51,0,0,0-1.19-2.26C547.41,517.17,545.38,515.86,542.77,514.21Zm-13.72-55.36c-2.9,3.7-5.79,6.85-8.08,10.39-4.21,6.52-2.52,10,5.12,10.65,3,.26,3.07,1.2,2.14,3.63-1.83,4.76-3.11,9.67-2.72,14.85.36,4.79,2.81,7.67,7.44,8.79a16.18,16.18,0,0,0,7.73.21c2.12-.51,3.55.2,5.07,1.82,7.6,8,13.92,7.56,20.55-1.3a13.1,13.1,0,0,0,2.29-3.61c1.58-4.9,4.67-6.29,9.62-5.19,2.32.51,4.93,0,7.35-.41,8-1.29,11.85-6.86,10.3-14.86-.1-.51-.34-1-.46-1.49-.43-1.75-.3-2.93,2-2.05a23.19,23.19,0,0,0,3.38.94c4.24.9,6.58-.56,8-4.73.76-2.18.39-4.38.48-6.57.05-1.24,0-2.38,1.77-2.32,4.86.16,6.51-3.43,7.46-7.11A67.21,67.21,0,0,0,620.18,449c.16-2,.69-2.78,2.75-2.67,1.86.1,4.45.49,5.05-1.58.52-1.77-1.9-2.82-3.14-4.09a3.76,3.76,0,0,0-.92-.72c-3.69-1.9-4.46-3.91-2-7.91,4.07-6.48,1.92-10.93-5.44-13a35.35,35.35,0,0,0-12.67-1.52c-2.81.25-3.88-.8-4.74-3.42-3.4-10.44-10.83-14.08-21.3-10.85a32.51,32.51,0,0,0-9.52,4.39c-2.39,1.7-4.3,1.73-7,.6-13-5.37-23.35-1.38-29.8,11.21a35,35,0,0,0-3.42,9.5,5.06,5.06,0,0,1-1.39,3.22c-.64-.84-1.18-1.55-1.7-2.26-3-4-4.78-4.79-9.26-2.79-6.87,3.06-10,9.19-11.71,16-.83,3.32,1.71,4.88,4.65,5.56,1.61.36,3.4-.06,4.91,1.17-.44.82-.89,1.6-1.31,2.4-1.16,2.15-3.26,4.45-1.89,6.79s4.44,1.42,6.84,1.54C521.07,460.79,524.72,459.08,529.05,458.85Zm52.13,186.06c3.92-2.53,6-5.38,7.82-12.39,6.22-24,10.41-48.47,15.61-72.7q7.1-33.11,13.75-66.29c1.15-5.68,3.1-11.25,2.81-17.17-.13-2.45-1.43-4.63-3.72-4.84-2.71-.25-3.27,2.06-3.49,4.55-.5,5.63-4.1,9.84-9.08,10-3.25.14-3.86,1.65-4.08,4.24-.37,4.29-2.39,8.06-6.07,9.89-4.48,2.21-5.16,5.58-5,9.79a34,34,0,0,1-.14,3.9c-1,14.23-2,28.47-3,42.71-.64,9.46-1.18,18.92-1.78,28.38q-1.44,22.92-2.92,45.85C581.69,635.37,581.46,639.87,581.18,644.91Zm-3.7-126.13a73.11,73.11,0,0,0-.07-8.16c-.26-2.14,1.71-5.3-.9-6.27-3.31-1.23-3.32,2.82-4.61,4.56-3.71,5-7.59,10.2-14.17,10.6-4.41.26-3.91,2.13-3.69,5q1.19,15.35,2.12,30.7c1,15.95,2,31.89,2.77,47.85.5,10.9,1.45,21.82.77,32.73a10.89,10.89,0,0,0,3.1,9c2.3,2.41,4.15,2,6.18-.33,2.65-3,3.36-6.61,3.54-10.44.49-10.38,1.09-20.76,1.53-31.14C575.23,574.76,576.35,546.59,577.48,518.78Zm-55.8-14c.69,7.66,1.18,14.08,1.85,20.49,3.12,30.11,5.88,60.26,10.07,90.25,1.13,8,1.52,16.35,5.28,23.82,1.12,2.23,2.23,5.85,5,5.18,3.2-.78,3.61-4.66,4.18-7.73,0-.12,0-.26,0-.39-.45-5.7-.82-11.41-1.38-17.1-2.23-22.76-3.82-45.57-5.27-68.39-.75-11.93-1.18-23.89-1.7-35.84-.06-1.51-.26-2.4-2.12-2.36C531.41,512.82,526.11,510.92,521.68,504.77ZM676,336.56c0-5-2.38-6.48-7.31-5.43-5.71,1.22-8.43,5.66-11.64,9.68-6.77,8.51-6.76,8.52-1.18,17.78a5.67,5.67,0,0,1,.42.66c1,2.28,2,2.13,3.47.21,5-6.61,10.09-13.14,15.17-19.69A4.2,4.2,0,0,0,676,336.56Zm-61.31,76.85c1.95.25,3,.38,3.87-.82,2.81-3.85,7.09-7.28,8.12-11.53.63-2.58-3.7-6.36-5.8-9.6-.28-.44-.63-.83-.89-1.28-.89-1.49-1.69-1.16-2.63,0-4.63,5.74-9.37,11.4-13.92,17.2a3.35,3.35,0,0,0,2.8,5.32C609.37,412.73,612.48,412.63,614.71,413.41ZM648.08,352l-12.43,15.35c-.68.83-1.33,1.58-.55,2.73,2.48,3.66,4.94,7.35,7.61,11.34,4.19-5.38,8-10.28,11.82-15.17a2.38,2.38,0,0,0,.23-3.14C652.49,359.53,650.37,355.85,648.08,352Zm-16.11,20c-3.33,4.12-6.44,8.07-9.67,11.91a2.46,2.46,0,0,0-.2,3.43c2.17,3.05,4.42,6,6.45,9.18,1,1.47,1.6,1.48,2.49.12,2.82-4.32,8.37-7.83,8.6-12.49.18-3.76-4.5-7.76-7-11.65A4.76,4.76,0,0,0,632,372.05ZM505.2,461.29c0-1.85-.78-3.55-.09-5.35.39-1,1.27-2.49-.54-3.31-1.25-.56-2.21,0-3.12.8a2.6,2.6,0,0,0-.44,3.77A11.2,11.2,0,0,0,505.2,461.29Zm15.32,30.89c.67-2.57,1.11-4.41,1.65-6.22A1.34,1.34,0,0,0,521,484c-1.64-.25-1.06.9-1,1.73C520.15,487.65,520.3,489.53,520.52,492.18Z" transform="translate(-42.06 -41.6)"/><path class="cls-2" d="M769.24,704.64c-5.5-5.08-10.4-9.69-15.4-14.17-2.89-2.6-6-3-9.09-.22-.78.69-1.7,1.21-2.53,1.83a1.2,1.2,0,0,1-1.73-.05c-.61-.61-.32-1.21.13-1.71q7.23-7.94,14.47-15.83c.44-.48.92-.92,1.66-.41s.63,1.25.22,2c-1.21,2.23-3.65,4.2-2.82,7,1,3.2,3.85,5.13,6.25,7.31,5.79,5.24,11.61,10.44,17.32,15.76.91.84,3,1.33,2.06,3.17a4.88,4.88,0,0,1-4,2.68,294.46,294.46,0,0,1-42.8,2.29c-1.52,0-3,0-5.66,0,5.89,6.52,11.06,12.41,16.43,18.11,2.12,2.25,4.8,2.29,7.44.6,1.21-.77,2.46-1.47,3.62-2.31.8-.57,1.48-1.12,2.28-.06s-.2,1.37-.7,1.84a377.1,377.1,0,0,1-38.35,31.29c-.79.56-1.67,1.09-2.34,0-.49-.78.19-1.3.78-1.91,4.7-4.76,4.53-4.52-1.35-7.76-3.53-1.93-6.1-1.93-9.24.68s-7.09,4.82-10.67,7.18c-2.47,1.63-3.36,9.94-1.14,11.92,1.63,1.45,3.12-.31,4.68-.56s3.54-3,4.59-.93c1,1.86-2.09,2.45-3.48,3.32a353,353,0,0,1-56.45,29c-1.07.43-2.58,1.95-3.42.41s1.12-2,2.22-2.46c3.49-1.55,4.44-3.6,2.63-7.37-3.48-7.24-6.76-14.62-9.52-22.17-1.49-4.05-3.8-4.8-7.39-3.88-1,.25-2.05.9-2.56-.59-.61-1.79,1.16-1.45,1.86-1.77,5.67-2.58,11.39-5,17.1-7.52.88-.39,1.91-1.41,2.63,0,.59,1.17-.64,1.42-1.34,2-4.61,3.46-4.58,3.53-2.11,8.86,3.4,7.31,6.83,14.61,10.06,22,1.31,3,3.09,3.91,6.07,2.51q3-1.41,6.06-2.66c6.65-2.7,10.41-7.48,10.71-14.75.06-1.59.5-3,2.16-3.24,1.88-.28,1.4,1.74,2.09,2.64a13.05,13.05,0,0,1,.7,1.4c.79,1.37.67,3.88,2.51,3.86,2,0,3.26-2.11,4-3.91,2.15-5.26,1.1-10.8.88-16.2-.36-8.57-1.18-17.11-1.74-25.67-.2-2.92,1.92-3.9,5.1-2.3C702.24,739,712.46,743.78,723,748c7.59,3.08,13.78,1,17.78-6.3a4.51,4.51,0,0,0-.29-5.45c-5.23-6.31-10.48-12.61-15.86-18.78a5.08,5.08,0,0,0-6.09-1.29c-1.67.69-3.32,1.46-5,2.22-.6.27-1.11.59-1.74,0a1,1,0,0,1,.05-1.66c6-3.8,9.52-11.1,19-10,11.56,1.35,23.35-.44,35-1.27A24.11,24.11,0,0,0,769.24,704.64Zm-77.83,38.17c.31,5.56.62,10.47.84,15.39.07,1.53.75,1.93,1.93,1.15,4.24-2.8,8.44-5.69,13-8.77C701.74,747.9,696.88,745.5,691.41,742.81Z" transform="translate(-42.06 -41.6)"/><path class="cls-2" d="M275.55,300.48c-.43-2.69-.82-5.39-1.32-8.06-.26-1.4-.19-2.64,1.13-3.42,1.63-1,1.85.89,2.67,1.48a22.08,22.08,0,0,1,1.8,2c1,1,1.72,2.88,3.13,2.56s1.86-2.25,2.41-3.7a8.8,8.8,0,0,0-.11-5.71c-3.21-11.5-6.08-23.09-8.35-34.83a28.74,28.74,0,0,1-.52-3.47c-.21-3,1.59-4.48,4.51-3.61a276,276,0,0,1,34.56,13c3.53,1.59,6.85,2.31,10.4.37.8-.43,1.73-1.05,2.39,0s-.35,1.62-1.05,2.17q-8,6.26-16,12.49c-.57.44-1.16,1.22-2,.47-1-.89-.23-1.52.35-2.27,3.81-5,3.7-4.8-2.17-7.59-3.67-1.75-6.41-2-9.37,1.46s-6.47,6-9.68,9.05c-2.07,2-.48,10.71,2.16,11.62,2.19.76,3.51-1.23,5.17-2.14,1-.53,1.79-2.57,3.15-1s-.68,2.21-1.47,3a283,283,0,0,0-40,48.73c-.62.95-.9,3-2.65,2s0-2.34.53-3.24c2-3.3,1.56-5.53-1.89-7.71-6.92-4.37-13.59-9.14-20.37-13.73-4.41-3-4.66-2.94-8.44,1-.63.64-1.19,1.36-1.8,2-.46.5-1,.88-1.71.45-.85-.56-.65-1.27-.17-2q7.24-11.34,15.37-22.08c.51-.68,1.16-1.18,1.95-.58s.38,1.34.05,2.09c-3.24,7.44-3.24,7.46,3.3,12.26,5.87,4.31,11.84,8.49,17.62,12.91,2.91,2.23,5.08,1.85,7.25-.88A92.71,92.71,0,0,0,274,305.27,8.22,8.22,0,0,0,275.55,300.48Zm9.91-29.1L299,259.19c-5.13-1.72-9.89-3.33-14.66-4.88-1.5-.48-2.93-.74-2.35,1.77C283.17,260.94,284.22,265.82,285.46,271.38Z" transform="translate(-42.06 -41.6)"/><path class="cls-2" d="M664,266.63a1.07,1.07,0,0,1-.36.14c-3.59,0-13.35-8.54-13.61-11.91-.55-7.12-2.34-14-4-20.92-.66-2.71-3-3.4-5-4.58-1.1-.68-1.57.49-2,1.24-1.72,2.9-3.28,5.9-5.14,8.71-1.6,2.41-1,4.07,1.22,5.52a16.86,16.86,0,0,1,1.87,1.4c.69.59,1.48,1.23.61,2.25s-1.35.1-2-.26q-6.75-3.87-13.51-7.73c-1.47-.84-3-1.63-4.45-2.43-.64-.35-1.62-.49-1-1.6.44-.74.95-.9,1.91-.68,6.19,1.43,6.25,1.41,9.29-4.06,3.84-6.92,7.42-14,11.45-20.79,1.92-3.24,1.39-5.27-1.67-7a9.39,9.39,0,0,1-1.32-.82c-.79-.63-2-1.21-1.11-2.45.74-1,1.66-.2,2.4.2,4.79,2.62,9.64,5.14,14.32,7.94,6.12,3.66,12.5,7,17.5,12.23a20.14,20.14,0,0,1,3.83,5.38c1.32,2.89,1.61,5.77-.44,8.45a8.67,8.67,0,0,1-8.58,3.5,37.3,37.3,0,0,1-7.11-1.82c-2.25-.8-2.88-.14-2.44,2,1.15,5.69,2.33,11.38,3.49,17.07a15.31,15.31,0,0,0,4.63,8.77c.67.6,1.36,1.25,1.07,2.32Zm-7.83-34.31c3.31.33,6.12-1.31,7.81-4.86s-.11-6.38-2.26-8.81c-2.69-3-6.43-4.76-9.82-6.91-1.43-.91-1.76.14-2.28,1q-3.47,5.85-6.94,11.7c-.54.91-1.18,1.77.16,2.59C646.77,229.48,650.57,232.25,656.14,232.32Z" transform="translate(-42.06 -41.6)"/><path class="cls-2" d="M438.21,190.76c6.46,4.65,12.37,9,18.41,13.2a10.51,10.51,0,0,0,6.67,1.8c.79,0,2-.42,2.17,1s-.91,1.31-1.8,1.42c-3.85.49-7.71,1-11.56,1.49-1.67.24-2.64-.83-3.71-1.76a170.7,170.7,0,0,0-16.89-12.52c-2.38-1.61-4.42-.67-6.61-.26-1.13.22-1.1,1-.82,2.12.93,3.63,1.71,7.31,2.51,11,.53,2.49,2.43,2.2,4.27,2.29,1.42.06,3.8-1,4,.75.37,2.54-2.53,1.57-3.85,2-5.34,1.59-10.8,2.75-16.22,4-.94.22-2.23.9-2.73-.44s.93-1.68,1.84-1.93c3.87-1,4.6-3.21,3.48-7-2.41-8.18-4.49-16.46-6.4-24.78-.81-3.53-2.47-4.91-6-4.1a9,9,0,0,1-1.94.2c-.82,0-2,.53-2.17-.85-.17-1.22.88-1.38,1.78-1.6,6.56-1.58,13.12-3.18,19.68-4.75,5.57-1.34,11.15-2.53,17-2.19a18.11,18.11,0,0,1,5.69,1.18c6.35,2.5,7.73,9.29,2.87,14.08C445.3,187.58,442,189,438.21,190.76Zm-8.92-17.53c-2.12.41-5.16,1-8.22,1.56-1.73.31-1.91,1.29-1.54,2.8,1.08,4.39,2.13,8.78,3,13.2.28,1.33.81,1.85,2.06,1.54,3.5-.85,7.13-1.3,10.25-3.35,4.18-2.74,6-6.59,4.83-10.46C438.71,175.18,435.08,173.15,429.29,173.23Z" transform="translate(-42.06 -41.6)"/><path class="cls-2" d="M601.22,204.83c2.6-.24,4.52-1,5.91-2.67a2.39,2.39,0,0,1,3.41-.65c1.79,1,.35,2.05,0,2.9-1.37,3.5-2.88,6.94-4.42,10.37-.42.93-.38,2.37-2.24,2-1.67-.33-1.55-1.4-1.64-2.57-.37-5.28-6.48-10.49-11.91-10.3-1.08,0-1.21.64-1.47,1.39-1.26,3.67-2.58,7.33-3.85,11-.94,2.75.21,4.49,2.76,5.52s4.91,1.75,7.19,3c6.09,3.22,11.83,3.14,17.25-1.35,1.12-.93,2.26-1.4,3.45-.39,1.55,1.31,0,2.34-.54,3.34-4.65,8-4.64,7.94-12.94,4.32a242.28,242.28,0,0,0-32.11-11.75,14.63,14.63,0,0,0-1.82-.64c-1.08-.17-1.21-.86-1.06-1.68s.93-.77,1.53-.69c2.13.26,4.4,1.69,6.34,0s2.12-4.65,2.94-7.07c2.36-7,4.43-14.11,6.9-21.06,1.16-3.25.39-5.17-2.68-6.41-1-.39-1.84-1-2.79-1.36-.76-.33-1.48-.66-1.14-1.65s1.2-.85,2-.64c2.24.66,4.46,1.36,6.69,2.05a328.3,328.3,0,0,1,35,13.27c2.69,1.19,3.74,2.36,2,5.09a40.59,40.59,0,0,0-2,4.2c-.4.82-.78,1.76-2,1.22-.79-.35-1.75-.44-1.92-1.64-1.68-12.08-12.52-12.29-20.72-15.89-1.31-.57-1.74.45-2.11,1.55-1.27,3.81-2.59,7.61-4,11.37-.39,1.07-.89,2,.58,2.48C595,202.65,598.29,203.8,601.22,204.83Z" transform="translate(-42.06 -41.6)"/><path class="cls-2" d="M293.44,766.67a21.08,21.08,0,0,0,8-2.19c1.31-.56,2.51-.81,3.59.29,1.54,1.57-.42,2.34-1,3.15-5.33,7.55-5.37,7.53-13,2.44a352.22,352.22,0,0,1-32.75-24.49c-.83-.7-2.95-1.26-1.7-2.84s2.23.37,3.16,1c4.8,3.2,5.05,3.17,8.75-1.49q7.16-9,14.36-17.94c3.35-4.17,3.35-4.38-.1-8.53-.65-.79-2.36-1.45-1.06-2.8s2.09.31,2.86.94a313.87,313.87,0,0,0,31,22.88c1.73,1.11,2.08,2,.77,3.63a43.74,43.74,0,0,0-2.95,4.59c-.49.81-.93,1.67-2.08,1.07-.81-.41-1.64-.88-1.55-2,.79-10.6-8.63-13.15-14.56-18.45-1.12-1-1.88-.15-2.54.72-2.37,3.09-4.65,6.26-7.11,9.28-1.15,1.41-.78,2.25.48,3.15,1.79,1.28,3.53,2.66,5.35,3.9,2.67,1.81,5.44,2.43,8.2.16,1.18-1,2.29-1.12,3.45-.06,1.41,1.28-.1,2.07-.62,2.88-2,3.16-4.22,6.23-6.32,9.36-.59.89-1.06,1.89-2.4,1.07a2.08,2.08,0,0,1-1.13-2.73c1-4.62-5-12.94-9.45-13.35-1-.1-1.3.72-1.75,1.31-2.15,2.76-4.31,5.52-6.4,8.33-1.29,1.74-1.64,3.73,0,5.32a56.62,56.62,0,0,0,16.29,11.18A6.65,6.65,0,0,0,293.44,766.67Z" transform="translate(-42.06 -41.6)"/><path class="cls-2" d="M488.53,165.4c7.15,0,14.3,0,21.45,0,2.33,0,3.34.79,2.81,3.29a36.86,36.86,0,0,0-.37,5.06c-.06.87.16,2-1.1,2.13-1,.08-2.16.21-2.77-.93-5.64-10.57-15.69-6.84-24.38-7.52-1.41-.11-1.73.75-1.67,2,.11,2.21,0,4.45.28,6.62.37,2.62-1.65,6.41,1.31,7.65,5.5,2.3,12.43-.23,14.65-4.57.71-1.39,1.43-2,2.95-1.7s1.07,1.52,1,2.49q-.2,5.85-.45,11.69c0,1,.27,2.2-1.32,2.35-1.38.12-2-.46-2.5-1.81-1.76-4.72-10.48-7.8-14.73-5.39a1.52,1.52,0,0,0-.82,1.58c.15,4.16.23,8.32.51,12.47.16,2.33,1.76,3.32,4,3.38,3.25.1,6.51,0,9.74.36,6,.59,10.29-1.8,13.35-6.77.85-1.37,1.76-3,3.58-2.18s.61,2.52.43,3.75c-.4,2.81-.22,6.43-1.89,8.12-1.85,1.86-5.42-.1-8.25-.11-11.44,0-22.89-.58-34.32.46-1,.1-2.63,1-3-.73-.43-2.1,1.8-1.74,2.7-1.83,3.9-.35,4.91-2.27,4.62-6-.64-8.17-.83-16.37-1.29-24.55-.3-5.59-.82-6-6.46-6.47-1.06-.08-2.78.59-2.9-1.06-.14-2.1,1.86-1.39,2.94-1.45,7.27-.42,14.55-.71,21.82-1.05C488.53,164.89,488.53,165.15,488.53,165.4Z" transform="translate(-42.06 -41.6)"/><path class="cls-2" d="M546.68,830.67c-6.69.08-12.57-1.27-17.69-5a18.74,18.74,0,0,1-3.5-27.24c9.35-11.71,30.2-14.89,42.61-6.48,12.19,8.27,11.27,25.5-1.78,33.37A36.3,36.3,0,0,1,546.68,830.67Zm-15.47-21.9c0,11.51,6.46,19,16.52,19.05,11.51.11,19.31-6.62,19.35-16.68,0-12.24-7.34-21-17.67-21C538.11,790.09,531.21,797.17,531.21,808.77Z" transform="translate(-42.06 -41.6)"/><path class="cls-2" d="M383,772.07c9.71.26,18.3,3.38,25.21,10.34,5.71,5.75,8.14,12.58,5.75,20.62-2.23,7.53-7.74,11.68-15.09,13-13.38,2.41-25-1.41-34.14-11.54-5.47-6.06-7.07-13.22-3.34-20.84s10.34-10.9,18.49-11.58C380.9,772,381.94,772.07,383,772.07Zm-14.23,24.08c-.06,9.83,8.44,17.32,19.61,17.29,9.66,0,17-8.75,17.08-20.37.09-10.09-8-17.81-18.68-17.83C377.43,775.23,368.81,785.24,368.75,796.15Z" transform="translate(-42.06 -41.6)"/><path class="cls-2" d="M685.08,286.28c.7-.2,1.32-.79,2.13,0,3.91,3.63,8.32,3.1,13.11,2a255.65,255.65,0,0,1,34.87-6c3.58-.34,5.14,1.67,3.95,5.16a310.53,310.53,0,0,1-14.21,35c-1.65,3.42-2.16,6.61-.44,10,.46.92,1.22,2.05,0,2.75s-1.73-.67-2.28-1.45q-6.06-8.62-12.06-17.27c-.48-.69-1.53-1.34-.56-2.31,1.21-1.23,1.84.08,2.46.77,4.9,5.46,4.4,3.83,7.27-1.29,2.36-4.23,2.18-7.52-1.42-11a50.5,50.5,0,0,1-6.89-8.44c-2.19-3.24-4.64-3.75-8.24-2.52-6.17,2.1-6.47,2.64-2.82,8.17.59.89,2.08,1.88.72,2.95s-2-.63-2.67-1.4c-3.9-4.19-7.75-8.41-11.64-12.61-.69-.75-1.7-1.31-1.26-2.6Zm38.1,18.27,6.26-17.73c-5.85,1-10.79,1.84-15.75,2.61-2.07.32-2,1.18-.89,2.54Z" transform="translate(-42.06 -41.6)"/><path class="cls-2" d="M551.77,194.69c-3.22-.47-7.23-.88-11.15-1.71-2-.41-2.47,0-2.63,1.87s-.75,3.82-1,5.74c-.85,6.13-2,7.46,4.86,8.94.74.16,1.66.17,1.58,1.28-.11,1.37-1.2,1.21-2,1.09-6.78-1-13.54-2.05-20.32-3.07-.84-.12-1.54-.27-1.43-1.35.08-.84.69-1,1.37-1,.91,0,1.82,0,2.73,0,2.3.07,3.67-1,4-3.3q2-14.66,4-29.3a3.14,3.14,0,0,0-2.31-3.59c-1-.37-2.07-.42-3-.87s-3.2.33-2.75-1.76c.4-1.83,2.17-.83,3.29-.69,9.15,1.11,18.27,2.39,27.27,4.38,4.48,1,8.7,2.62,12.17,5.78,4.89,4.47,4.42,10.81-1.14,14.46C561.39,194.12,557,194.44,551.77,194.69Zm-4.46-3.77c.78,0,1.56,0,2.34,0,4.84-.24,8.14-2.73,8.87-6.65.87-4.66-1.12-8.07-5.89-10.13-2.65-1.15-5.51-1.42-8.3-2-1.92-.4-2.85.14-3.05,2.27-.25,2.7-.87,5.36-1.32,8C538.63,190.38,539,190.82,547.31,190.92Z" transform="translate(-42.06 -41.6)"/><path class="cls-2" d="M480.15,828.91a71.51,71.51,0,0,0,23.42.91c3.19-.41,5.29-2.63,7.31-4.83a48.38,48.38,0,0,0,3.31-4.32,2.49,2.49,0,0,1,2.77-.95c1.4.3.73,1.4.68,2.22-.71,10.86-.71,10.8-11.58,11s-21.84-.33-32.75-.88c-1.93-.1-3.85-.43-6.67-.76,13.65-11.85,26.47-23.48,38.21-37.21-6.45,0-12.17-.25-17.86.08-4.41.25-7.48,3.3-10.3,6.42-.95,1-1.71,2.67-3.41,1.88-1.87-.88-.54-2.48-.29-3.66,1.73-8.11,1.76-7.8,9.94-7.48,9.75.39,19.51.17,29.27.28,1,0,2.58-.8,3.08.66.36,1-.91,1.75-1.55,2.52a334.79,334.79,0,0,1-32.25,33.31A8.33,8.33,0,0,1,480.15,828.91Z" transform="translate(-42.06 -41.6)"/><path class="cls-2" d="M348.94,779.08a35.85,35.85,0,0,1-16.76-5.35c-2.33-1.37-3.87-1.44-4.94,1.5a23.41,23.41,0,0,1-3.09,5.85c-2.3,3.14-1.2,5.18,1.7,6.91.67.4,1.29.88,2,1.22.92.45,1.66,1,1,2.06-.57.92-1.39.4-2,0q-10.05-5.58-20.08-11.2c-.73-.41-1.86-.91-1.15-2.05s1.57-.26,2.38.06c5.75,2.3,5.79,2.31,8.91-3.12,3.82-6.65,7.42-13.43,11.41-20,2-3.26,2.16-5.63-1.26-7.85-.82-.53-2.66-1.09-1.74-2.52,1.1-1.7,2.27,0,3.27.56,7,3.74,13.89,7.54,20.83,11.32a28.73,28.73,0,0,1,6.62,4.77c4.22,4.18,5.42,7.73,3.63,11.72C357.5,777.75,353.26,778.73,348.94,779.08Zm1.9-13.53c-.08-5.16-4-7.19-7.73-9.31-4.34-2.47-4.35-2.42-6.55,1.88-.82,1.62-1.7,3.21-2.58,4.79-4,7.26-3.31,8.81,5,10.73.5.12,1,.17,1.53.28C346.38,775.14,350.9,771.47,350.84,765.55Z" transform="translate(-42.06 -41.6)"/><path class="cls-2" d="M270.41,711.15c1.55-5.35-3-8.71-6.78-12.44-1.14-1.14-2-.58-2.93.38-6.87,7.07-13.79,14.1-20.68,21.14-2.27,2.33-.6,4.11.64,6.18,1,1.67,4.48,3.06,2.45,5.05-1.24,1.21-3.16-1.86-4.53-3.2-5.37-5.28-10.6-10.7-15.85-16.1-.74-.77-2.25-1.59-.88-2.81,1.11-1,1.76.49,2.53,1,.52.38,1,.89,1.43,1.32,4.24,3.81,4.85,3.79,8.95-.19,6.43-6.24,12.83-12.52,19.34-18.68,1.48-1.41,1.36-2.21.13-3.76-4-5-8.79-7.53-15.26-6.26-1.47.28-3,.28-3.6-1.4-.56-1.51,1-1.93,1.78-2.63,6.08-5.42,6.06-5.37,11.62.8A301.6,301.6,0,0,0,276.39,707c2.25,1.93,3.33,3.46.46,5.71a38,38,0,0,0-2.84,3.19c-.76.74-1,2.46-2.55,1.88s-1.63-2.12-1.27-3.63A23.8,23.8,0,0,0,270.41,711.15Z" transform="translate(-42.06 -41.6)"/><path class="cls-2" d="M404.72,209c-2.76,12.37-12,17.12-22.64,20.07a26.16,26.16,0,0,1-16.06-.42c-14.79-5.28-18.7-21.78-7.88-33.33,7.3-7.8,16.48-11.56,27-12.16,1.57-.09,2.72-.16,3.89-1.72,1.81-2.41,3.61-1.92,4.62.85,1.12,3.05,2.22,6.11,3.19,9.21.29.92,1.48,2.2-.36,2.92-1.27.5-2.51.79-3.43-.67a7.13,7.13,0,0,0-.82-.83c-4.46-4.85-9.72-7.28-16.37-5.27-7.1,2.14-12.59,6-14.54,13.68-2.56,10.14,6.63,22.68,17,23.14,11.29.49,18.19-3.75,22.41-14.08C401.74,208.1,403.12,209,404.72,209Z" transform="translate(-42.06 -41.6)"/><path class="cls-2" d="M617.34,811.17c1.65-.31,3.3-.66,5-.92.76-.12,1.63-.2,1.78.9.11.82-.54,1.16-1.15,1.34q-12.47,3.79-25,7.53c-.77.23-1.59.44-1.88-.63s.59-1.28,1.27-1.64c7.33-3.88,7.34-3.89,5-12-2.14-7.46-4.34-14.89-6.43-22.36-.58-2.09-1.33-2.5-3.68-2-6.11,1.18-9.68,4.64-11.08,10.5-.32,1.35-.84,2.14-2.27,2.11s-1.41-1.13-1.67-2.17c-2.09-8.35-2.1-8.3,6.35-10.55a323.88,323.88,0,0,0,34.44-10.9c2.38-.93,3.56-.67,4.25,1.84.47,1.73,1.31,3.36,1.87,5.07.31,1,1.48,2.05-.15,3-1.32.79-2.15.07-3.07-.74-4.56-4-9.56-4.57-15.19-2.29-2,.8-2.36,1.73-1.82,3.42,3,9.24,6,18.47,8.92,27.72A3.63,3.63,0,0,0,617.34,811.17Z" transform="translate(-42.06 -41.6)"/><path class="cls-2" d="M451.19,830.07l-24.48-4.15c-.83-.14-1.59-.41-1.52-1.39s1-.9,1.78-.94c2.72-.13,5.95,1.87,8-.94,1.68-2.3,1.35-5.45,1.83-8.23,1.29-7.41,2.45-14.85,4-22.21.58-2.79-.68-3.14-2.81-3.71-5.49-1.47-9.91,0-13.62,4.18-.82.92-1.7,2.17-3.24,1.43-1.72-.83-.77-2.29-.54-3.42,1.53-7.63,1.56-7.65,9.25-6.15a337,337,0,0,0,37.27,5.56l.38,0c1.55-.06,2.37.83,1.82,2.16-1.26,3,1.19,7-2,9.2-1.33.92-2.19-1.26-2.75-2.56-2.37-5.51-6.74-7.86-12.56-8.11-1.72-.07-2.49.24-2.75,2.17-1.24,9.25-2.48,18.52-4.11,27.71-.66,3.77.83,5.31,4.08,6.08.89.21,1.75.53,2.63.72s2,.15,1.9,1.43C453.58,830.73,452.1,829.48,451.19,830.07Z" transform="translate(-42.06 -41.6)"/><path class="cls-2" d="M663.91,266.68c2.2.22,3.82,1.61,5.51,2.81,2,1.42,3.69,1.51,5.41-.51q9.31-11,18.75-21.83c2.41-2.77-.12-4.32-1.24-6.39-.82-1.51-4.21-2.46-2.36-4.31,1.45-1.43,3.22,1.25,4.53,2.39,5.67,4.95,11.19,10.06,16.72,15.16.66.61,2.09,1.2,1.1,2.46-1.25,1.6-1.94-.21-2.77-.7-1-.6-1.87-1.4-2.81-2.09-2.21-1.61-4.06-1.59-6.06.66-5.94,6.71-12,13.33-18.14,19.8-2.28,2.38-2.39,4.36-.25,6.7a9.7,9.7,0,0,1,2.78,5.45l0-.06c-2.77-1.08-4.68-3.26-6.8-5.18-3.85-3.5-7.67-7-11.72-10.3a8,8,0,0,1-2.63-4.11Z" transform="translate(-42.06 -41.6)"/><path class="cls-2" d="M281.89,185.78a6.63,6.63,0,0,1-6.58-6.77,6.52,6.52,0,0,1,6.82-6.47,6.62,6.62,0,0,1,6.62,6.72A6.77,6.77,0,0,1,281.89,185.78Z" transform="translate(-42.06 -41.6)"/><path class="cls-2" d="M206.67,754a6.51,6.51,0,0,1-6.51,6.78,6.65,6.65,0,0,1-6.79-6.57,6.82,6.82,0,0,1,6.58-6.82A6.6,6.6,0,0,1,206.67,754Z" transform="translate(-42.06 -41.6)"/><path class="cls-2" d="M494.09,890.88a6.63,6.63,0,1,1-13.26-.28,6.82,6.82,0,0,1,6.79-6.6A6.75,6.75,0,0,1,494.09,890.88Z" transform="translate(-42.06 -41.6)"/><path class="cls-2" d="M312.31,839a6.37,6.37,0,0,1,6.62,6.61,6.53,6.53,0,0,1-6.95,6.73,6.82,6.82,0,0,1-6.31-6.69A6.58,6.58,0,0,1,312.31,839Z" transform="translate(-42.06 -41.6)"/><path class="cls-2" d="M733.26,816.42a6.71,6.71,0,0,1-13.41-.15,6.71,6.71,0,1,1,13.41.15Z" transform="translate(-42.06 -41.6)"/><path class="cls-2" d="M319.48,160.64a6.86,6.86,0,0,1-6.81,6.65,6.57,6.57,0,0,1-6.5-6.83,6.44,6.44,0,0,1,6.69-6.57A6.63,6.63,0,0,1,319.48,160.64Z" transform="translate(-42.06 -41.6)"/><path class="cls-2" d="M251.74,797.83a6.47,6.47,0,0,1,6.55,6.74,6.81,6.81,0,0,1-6.86,6.55,6.6,6.6,0,0,1-6.49-6.87A6.33,6.33,0,0,1,251.74,797.83Z" transform="translate(-42.06 -41.6)"/><path class="cls-2" d="M280.78,819.19a6.89,6.89,0,0,1,6.68,6.75,6.69,6.69,0,0,1-6.75,6.59,6.41,6.41,0,0,1-6.59-6.66A6.63,6.63,0,0,1,280.78,819.19Z" transform="translate(-42.06 -41.6)"/><path class="cls-2" d="M530.65,890.79A6.65,6.65,0,0,1,524,897.5a6.9,6.9,0,0,1-6.72-6.78A7.13,7.13,0,0,1,524,884,6.87,6.87,0,0,1,530.65,890.79Z" transform="translate(-42.06 -41.6)"/><path class="cls-2" d="M670.34,151.61c.06,4.13-2.32,6.73-6.23,6.81a6.59,6.59,0,0,1-6.93-6.37,6.86,6.86,0,0,1,6.49-6.94A6.37,6.37,0,0,1,670.34,151.61Z" transform="translate(-42.06 -41.6)"/><path class="cls-2" d="M882.34,472.61a6.66,6.66,0,0,1,0-13.32,6.66,6.66,0,1,1,0,13.32Z" transform="translate(-42.06 -41.6)"/><path class="cls-2" d="M450.73,882.12a6.15,6.15,0,0,1,6.47,6.63,6.7,6.7,0,0,1-6.73,6.63,7.15,7.15,0,0,1-6.6-6.92A6.42,6.42,0,0,1,450.73,882.12Z" transform="translate(-42.06 -41.6)"/><path class="cls-2" d="M338.22,144.76a6.24,6.24,0,0,1,6.61-6.53,6.64,6.64,0,1,1-.2,13.28C340.82,151.48,338.2,148.71,338.22,144.76Z" transform="translate(-42.06 -41.6)"/><path class="cls-2" d="M719.47,188.45a6.59,6.59,0,0,1,6.56-6.77,6.77,6.77,0,0,1,6.67,6.74,6.55,6.55,0,0,1-6.63,6.67A6.4,6.4,0,0,1,719.47,188.45Z" transform="translate(-42.06 -41.6)"/><path class="cls-2" d="M837.36,679.4c-.06-4,2.48-6.74,6.36-6.77a6.71,6.71,0,0,1,6.91,6.49A7.13,7.13,0,0,1,844,686,6.4,6.4,0,0,1,837.36,679.4Z" transform="translate(-42.06 -41.6)"/><path class="cls-2" d="M224.81,773.65a6.34,6.34,0,0,1,6.65,6.57,6.69,6.69,0,1,1-13.37,0A6.49,6.49,0,0,1,224.81,773.65Z" transform="translate(-42.06 -41.6)"/><path class="cls-2" d="M151.49,310a6.45,6.45,0,0,1,6.66-6.57,7.06,7.06,0,0,1,6.64,6.83,6.83,6.83,0,0,1-6.89,6.52A6.34,6.34,0,0,1,151.49,310Z" transform="translate(-42.06 -41.6)"/><path class="cls-2" d="M458.05,116.93A6.36,6.36,0,0,1,451,123a6.74,6.74,0,0,1-6.21-6.75,7,7,0,0,1,6.88-6.58A6.61,6.61,0,0,1,458.05,116.93Z" transform="translate(-42.06 -41.6)"/><path class="cls-2" d="M695.22,842.45a6.36,6.36,0,0,1-6.19-7,6.68,6.68,0,0,1,7-6.27,6.59,6.59,0,0,1,6.22,7.1A6.49,6.49,0,0,1,695.22,842.45Z" transform="translate(-42.06 -41.6)"/><path class="cls-2" d="M851.28,360.52a6.49,6.49,0,0,1,6.29-7,7.09,7.09,0,0,1,7,6.89,6.75,6.75,0,0,1-6.49,6.48A6.3,6.3,0,0,1,851.28,360.52Z" transform="translate(-42.06 -41.6)"/><path class="cls-2" d="M521.52,119.94a6.35,6.35,0,0,1-6.53-6.67,7,7,0,0,1,6.89-6.53,6.76,6.76,0,0,1,6.48,6.89C528.27,117.45,525.51,120,521.52,119.94Z" transform="translate(-42.06 -41.6)"/><path class="cls-2" d="M225,231.52a6.49,6.49,0,0,1-6.63-6.6,7,7,0,0,1,6.81-6.68,6.91,6.91,0,0,1,6.6,6.88A6.36,6.36,0,0,1,225,231.52Z" transform="translate(-42.06 -41.6)"/><path class="cls-2" d="M114.9,521.14a6.66,6.66,0,0,1-13.31,0,6.74,6.74,0,0,1,6.69-6.7A6.64,6.64,0,0,1,114.9,521.14Z" transform="translate(-42.06 -41.6)"/><path class="cls-2" d="M818.44,294.94a6.23,6.23,0,0,1,6.76-6.39,6.81,6.81,0,0,1,6.55,6.82,6.91,6.91,0,0,1-7,6.44A6.39,6.39,0,0,1,818.44,294.94Z" transform="translate(-42.06 -41.6)"/><path class="cls-2" d="M876.48,611a6.32,6.32,0,0,1-6.72,6.49,7,7,0,0,1-6.57-6.92,6.71,6.71,0,0,1,7-6.41C874.06,604.22,876.55,606.92,876.48,611Z" transform="translate(-42.06 -41.6)"/><path class="cls-2" d="M165.09,694.4c0,4-2.63,6.7-6.46,6.71a6.71,6.71,0,0,1-6.86-6.53,7.05,7.05,0,0,1,6.67-6.81A6.55,6.55,0,0,1,165.09,694.4Z" transform="translate(-42.06 -41.6)"/><path class="cls-2" d="M864.83,646.09c0,4-2.52,6.67-6.38,6.73a6.67,6.67,0,1,1-.16-13.34A6.3,6.3,0,0,1,864.83,646.09Z" transform="translate(-42.06 -41.6)"/><path class="cls-2" d="M884.68,496c3.55.08,6.8,3.44,6.62,6.84a7,7,0,0,1-7,6.51c-3.77-.06-6.31-2.85-6.26-6.87A6.29,6.29,0,0,1,884.68,496Z" transform="translate(-42.06 -41.6)"/><path class="cls-2" d="M408.57,122.16a6.54,6.54,0,0,1,6.58-6.67,6.91,6.91,0,0,1,6.7,6.75,6.75,6.75,0,0,1-6.77,6.63A6.34,6.34,0,0,1,408.57,122.16Z" transform="translate(-42.06 -41.6)"/><path class="cls-2" d="M849.14,326.15c0,3.92-2.77,6.73-6.5,6.62a6.69,6.69,0,1,1,.08-13.37C846.44,319.39,849.15,322.24,849.14,326.15Z" transform="translate(-42.06 -41.6)"/><path class="cls-2" d="M171,280.77a6.53,6.53,0,0,1,6.59-6.69,6.9,6.9,0,0,1,6.71,6.73,7.1,7.1,0,0,1-6.76,6.78A6.71,6.71,0,0,1,171,280.77Z" transform="translate(-42.06 -41.6)"/><path class="cls-2" d="M252.17,206.53a6.54,6.54,0,0,1-6.76-6.5,7,7,0,0,1,6.71-6.76,6.77,6.77,0,0,1,6.7,6.71A6.38,6.38,0,0,1,252.17,206.53Z" transform="translate(-42.06 -41.6)"/><path class="cls-2" d="M206.4,250.51a6.57,6.57,0,0,1-6.85,6.44,6.87,6.87,0,0,1-6.46-7,7,7,0,0,1,7-6.49A6.67,6.67,0,0,1,206.4,250.51Z" transform="translate(-42.06 -41.6)"/><path class="cls-2" d="M754.25,787a6.7,6.7,0,0,1,6.84,6.52,6.36,6.36,0,0,1-6.4,6.79,6.59,6.59,0,0,1-6.93-6.36A6.85,6.85,0,0,1,754.25,787Z" transform="translate(-42.06 -41.6)"/><path class="cls-2" d="M803.92,272.19c-4,0-6.72-2.59-6.7-6.44a6.8,6.8,0,0,1,6.51-6.88,7.15,7.15,0,0,1,6.83,6.69A6.58,6.58,0,0,1,803.92,272.19Z" transform="translate(-42.06 -41.6)"/><path class="cls-2" d="M589,125.77c0-4,2.52-6.69,6.42-6.73a7.09,7.09,0,0,1,6.92,6.59c.06,3.41-3.22,6.68-6.78,6.73C591.69,132.43,589,129.73,589,125.77Z" transform="translate(-42.06 -41.6)"/><path class="cls-2" d="M832.13,710.83a6.31,6.31,0,0,1-6.53,6.65,6.69,6.69,0,0,1-6.83-6.51,7,7,0,0,1,6.69-6.8A6.59,6.59,0,0,1,832.13,710.83Z" transform="translate(-42.06 -41.6)"/><path class="cls-2" d="M107.74,477.58a6.64,6.64,0,0,1,6.34,7,6.75,6.75,0,0,1-7.07,6.3,6.61,6.61,0,0,1-6.23-7A6.4,6.4,0,0,1,107.74,477.58Z" transform="translate(-42.06 -41.6)"/><path class="cls-2" d="M493,114.26a6.48,6.48,0,0,1-6.84,6.42,6.4,6.4,0,0,1-6.45-6.79,6.62,6.62,0,0,1,6.82-6.51A6.72,6.72,0,0,1,493,114.26Z" transform="translate(-42.06 -41.6)"/><path class="cls-2" d="M559.48,124.67c-4,0-6.53-2.51-6.53-6.55a6.47,6.47,0,0,1,6.51-6.8,7.21,7.21,0,0,1,6.77,6.78A6.56,6.56,0,0,1,559.48,124.67Z" transform="translate(-42.06 -41.6)"/><path class="cls-2" d="M127.37,371.8a6.7,6.7,0,0,1,7,6.77,7.33,7.33,0,0,1-6.54,6.65,6.7,6.7,0,0,1-6.74-6.58C121.07,374.53,123.52,371.85,127.37,371.8Z" transform="translate(-42.06 -41.6)"/><path class="cls-2" d="M663.91,859.57A6.88,6.88,0,0,1,657.1,853a7,7,0,0,1,6.79-6.71,6.38,6.38,0,0,1,6.47,6.69C670.35,857.1,667.92,859.58,663.91,859.57Z" transform="translate(-42.06 -41.6)"/><path class="cls-2" d="M407.69,883.65a6.17,6.17,0,0,1,6.67-6.4A6.65,6.65,0,0,1,421,884a7.16,7.16,0,0,1-7,6.6A6.52,6.52,0,0,1,407.69,883.65Z" transform="translate(-42.06 -41.6)"/><path class="cls-2" d="M560.17,879a6.47,6.47,0,0,1,6.58,6.67,6.74,6.74,0,0,1-13.47-.26A6.56,6.56,0,0,1,560.17,879Z" transform="translate(-42.06 -41.6)"/><path class="cls-2" d="M177.76,731.48c-4.22,0-6.62-2.26-6.64-6.36a6.64,6.64,0,0,1,6.41-6.91,7.16,7.16,0,0,1,6.87,6.68A6.45,6.45,0,0,1,177.76,731.48Z" transform="translate(-42.06 -41.6)"/><path class="cls-2" d="M589,879.05c0-4,2.68-6.67,6.54-6.63a6.72,6.72,0,0,1,6.76,6.64,7,7,0,0,1-6.79,6.7A6.5,6.5,0,0,1,589,879.05Z" transform="translate(-42.06 -41.6)"/><path class="cls-2" d="M345.7,867.36c-4.13.06-6.64-2.29-6.72-6.29a6.44,6.44,0,0,1,6.27-7,7.21,7.21,0,0,1,7,6.53A6.6,6.6,0,0,1,345.7,867.36Z" transform="translate(-42.06 -41.6)"/><path class="cls-2" d="M148.52,661.39a6.37,6.37,0,0,1-6.58,6.63,7.11,7.11,0,0,1-6.72-6.79,7,7,0,0,1,6.88-6.56C146,654.69,148.54,657.37,148.52,661.39Z" transform="translate(-42.06 -41.6)"/><path class="cls-2" d="M702.41,169.29a6.5,6.5,0,0,1-6.59,6.68,6.89,6.89,0,0,1-6.73-6.7,6.67,6.67,0,0,1,6.76-6.63A6.38,6.38,0,0,1,702.41,169.29Z" transform="translate(-42.06 -41.6)"/><path class="cls-2" d="M118,556.18a6.19,6.19,0,0,1-6.51,6.54,6.44,6.44,0,0,1-6.77-6.39,6.89,6.89,0,0,1,6.85-6.89A6.46,6.46,0,0,1,118,556.18Z" transform="translate(-42.06 -41.6)"/><path class="cls-2" d="M804.46,733.78a6.15,6.15,0,0,1,6.46,6.63,6.57,6.57,0,0,1-6.64,6.65,7.07,7.07,0,0,1-6.68-6.84A6.63,6.63,0,0,1,804.46,733.78Z" transform="translate(-42.06 -41.6)"/><path class="cls-2" d="M780.48,230.72a6.49,6.49,0,0,1,6.86,6.42,7,7,0,0,1-6.61,6.87,6.71,6.71,0,0,1-6.72-6.62A6.21,6.21,0,0,1,780.48,230.72Z" transform="translate(-42.06 -41.6)"/><path class="cls-2" d="M864,394.21c-.06-4,2.49-6.71,6.35-6.72a6.66,6.66,0,0,1,6.93,6.44,7.13,7.13,0,0,1-6.63,6.92C867.15,401,864,397.89,864,394.21Z" transform="translate(-42.06 -41.6)"/><path class="cls-2" d="M135.22,628.7c0,4-2.59,6.7-6.47,6.72a7,7,0,0,1-6.82-6.63,6.85,6.85,0,0,1,6.75-6.7A6.23,6.23,0,0,1,135.22,628.7Z" transform="translate(-42.06 -41.6)"/><path class="cls-2" d="M103.93,448.2a6.23,6.23,0,0,1,6.54-6.54,7,7,0,0,1,6.76,6.66,6.87,6.87,0,0,1-7.06,6.66C106.34,454.87,103.89,452.21,103.93,448.2Z" transform="translate(-42.06 -41.6)"/><path class="cls-2" d="M780.43,775.25a6.15,6.15,0,0,1-6.41-6.71A6.66,6.66,0,0,1,780.8,762a7,7,0,0,1,6.54,6.95C787.24,772.7,784.39,775.32,780.43,775.25Z" transform="translate(-42.06 -41.6)"/><path class="cls-2" d="M753.32,204.83a6.38,6.38,0,0,1,6.69,6.48,7,7,0,0,1-6.69,6.78,6.74,6.74,0,0,1-6.6-6.78C746.7,207.42,749.36,204.81,753.32,204.83Z" transform="translate(-42.06 -41.6)"/><path class="cls-2" d="M385.93,874.7c0,4-2.5,6.64-6.33,6.73a6.71,6.71,0,0,1-7-6.71,6.87,6.87,0,0,1,6.76-6.58A6.32,6.32,0,0,1,385.93,874.7Z" transform="translate(-42.06 -41.6)"/><path class="cls-2" d="M636.69,137.35a6.32,6.32,0,0,1-6.5,6.68,7.14,7.14,0,0,1-6.79-6.74,6.75,6.75,0,0,1,6.84-6.55C634.21,130.73,636.7,133.28,636.69,137.35Z" transform="translate(-42.06 -41.6)"/><path class="cls-2" d="M386.13,131.53a6.26,6.26,0,0,1-6.78,6.4c-3.55-.08-6.78-3.41-6.61-6.82a7.2,7.2,0,0,1,7.06-6.51A6.51,6.51,0,0,1,386.13,131.53Z" transform="translate(-42.06 -41.6)"/><path class="cls-2" d="M622.6,867.3c0-4,2.51-6.42,6.64-6.34a6.51,6.51,0,0,1,6.65,6.61,7,7,0,0,1-6.89,6.6A6.57,6.57,0,0,1,622.6,867.3Z" transform="translate(-42.06 -41.6)"/><path class="cls-2" d="M148.5,343.48c0,3.95-2.64,6.73-6.44,6.74a7,7,0,0,1-6.86-6.6,6.83,6.83,0,0,1,6.71-6.69A6.21,6.21,0,0,1,148.5,343.48Z" transform="translate(-42.06 -41.6)"/><path class="cls-2" d="M878.8,423.59c4.09.05,6.37,2.46,6.29,6.66a6.49,6.49,0,0,1-6.6,6.64c-3.48-.12-6.76-3.55-6.63-6.93A6.47,6.47,0,0,1,878.8,423.59Z" transform="translate(-42.06 -41.6)"/><path class="cls-2" d="M885.08,576.2c-.07,3.9-2.7,6.32-6.7,6.17a6.48,6.48,0,0,1-6.53-6.69,7.23,7.23,0,0,1,6.84-6.63C882.45,569,885.15,572.05,885.08,576.2Z" transform="translate(-42.06 -41.6)"/><path class="cls-2" d="M889.86,539.93c0,3.9-2.43,6.35-6.21,6.38-4,0-7.2-3-7.07-6.69a7.1,7.1,0,0,1,6.95-6.57C887.27,533.1,889.89,536,889.86,539.93Z" transform="translate(-42.06 -41.6)"/><path class="cls-2" d="M117.07,418.22c-3.94-.06-6.19-2.51-6.11-6.69a6.56,6.56,0,0,1,6.6-6.57,7.29,7.29,0,0,1,6.65,6.87C124.16,415.66,121.24,418.28,117.07,418.22Z" transform="translate(-42.06 -41.6)"/><path class="cls-2" d="M117.55,586.16A6.85,6.85,0,0,1,124,593a6.8,6.8,0,0,1-13.59-.22A6.8,6.8,0,0,1,117.55,586.16Z" transform="translate(-42.06 -41.6)"/><path class="cls-2" d="M697.3,235.39c5.41,1,10.59,2,15.71,3.1a8,8,0,0,1,3.29,2c1.41,1.23,2.58,2.94,1.42,4.75s-2.93.61-4.24,0c-5.31-2.36-10.52-4.92-15.8-7.35-.9-.42-1.7-.81-1.41-1.92C696.35,235.65,697.06,235.51,697.3,235.39Z" transform="translate(-42.06 -41.6)"/><path class="cls-2" d="M692.19,720.92a10.2,10.2,0,0,1-.84,1.85c-2.66,3.81-5.37,7.59-8.07,11.37-.54.75-1.2,1.63-2.19.94s0-1.42.21-2.09c1.22-3.54,2.52-7,3.75-10.59a5.86,5.86,0,0,1,3.79-4.11C690.71,717.74,692.23,718.2,692.19,720.92Z" transform="translate(-42.06 -41.6)"/><path class="cls-2" d="M303.27,539.42c.5-4.26,2.54-7.09,4.52-9.84,6.59-9.19,15-16.55,24-23.25,20.45-15.22,42.9-26.85,66.08-37.28,18.14-8.16,35.94-17.06,51.76-29.36,1.63-1.27,3.13-2.73,4.67-4.12.5-.44,1-1,1.54-.18a1,1,0,0,1-.24,1.36c-1.83,1.66-3.59,3.42-5.54,4.91-15.81,12.08-33.48,20.92-51.49,29-24.49,11-48.23,23.31-69.42,40-9.83,7.74-19.11,16.1-24.35,27.91C304.7,538.77,304.37,538.83,303.27,539.42Z" transform="translate(-42.06 -41.6)"/><path class="cls-2" d="M569.79,680.65c-3.77,0-7.54,0-11.3,0-1,0-2.29,0-2.21-1.52.06-1.17,1.17-1.38,2-1.39q11.69-.08,23.38,0c.9,0,2,.22,2,1.4.05,1.48-1.13,1.52-2.2,1.52Z" transform="translate(-42.06 -41.6)"/><path class="cls-2" d="M572.5,666.66h4.26a1.76,1.76,0,0,1,1.91,2,1.69,1.69,0,0,1-1.95,1.86c-2.71,0-5.43,0-8.14,0a1.78,1.78,0,0,1-2.08-1.76c-.09-1.37.66-2.14,2.12-2.1,1.29,0,2.59,0,3.88,0Z" transform="translate(-42.06 -41.6)"/></g></svg>